<?xml version="1.0" encoding="iso-8859-1"?>
<!-- Uploaded to: SVG Repo, www.svgrepo.com, Generator: SVG Repo Mixer Tools -->
<!DOCTYPE svg PUBLIC "-//W3C//DTD SVG 1.1//EN" "http://www.w3.org/Graphics/SVG/1.1/DTD/svg11.dtd">
<svg fill="#000000" version="1.1" id="Capa_1" xmlns="http://www.w3.org/2000/svg" xmlns:xlink="http://www.w3.org/1999/xlink" 
	 width="800px" height="800px" viewBox="0 0 602.973 602.973"
	 xml:space="preserve">
<g>
	<g>
		<path d="M544.332,0.5H58.64C26.582,0.5,0.5,26.582,0.5,58.64v485.692c0,32.059,26.082,58.141,58.14,58.141h485.692
			c32.059,0,58.141-26.082,58.141-58.141V58.64C602.473,26.582,576.391,0.5,544.332,0.5z M559.631,544.332
			c0,8.451-6.85,15.299-15.299,15.299H58.64c-8.45,0-15.3-6.848-15.3-15.299V58.64c0-8.45,6.85-15.3,15.3-15.3h485.692
			c8.449,0,15.299,6.85,15.299,15.3V544.332z"/>
		<path d="M544.332,602.973H58.64C26.306,602.973,0,576.667,0,544.332V58.64C0,26.306,26.306,0,58.64,0h485.692
			c32.335,0,58.641,26.306,58.641,58.64v485.692C602.973,576.667,576.667,602.973,544.332,602.973z M58.64,1
			C26.857,1,1,26.857,1,58.64v485.692c0,31.783,25.857,57.641,57.64,57.641h485.692c31.783,0,57.641-25.857,57.641-57.641V58.64
			c0-31.783-25.857-57.64-57.641-57.64H58.64z M544.332,560.131H58.64c-8.712,0-15.8-7.087-15.8-15.799V58.64
			c0-8.712,7.088-15.8,15.8-15.8h485.692c8.712,0,15.799,7.088,15.799,15.8v485.692
			C560.131,553.044,553.044,560.131,544.332,560.131z M58.64,43.84c-8.161,0-14.8,6.64-14.8,14.8v485.692
			c0,8.16,6.64,14.799,14.8,14.799h485.692c8.16,0,14.799-6.639,14.799-14.799V58.64c0-8.161-6.639-14.8-14.799-14.8H58.64z"/>
	</g>
	<g>
		<path d="M124.303,207.841h354.342c32.059,0,58.139-26.082,58.139-58.14V122.18c0-32.059-26.08-58.14-58.139-58.14H124.303
			c-32.059,0-58.14,26.082-58.14,58.14v27.521C66.163,181.76,92.244,207.841,124.303,207.841z M109.002,122.18
			c0-8.45,6.85-15.3,15.3-15.3h354.342c8.449,0,15.299,6.85,15.299,15.3v27.521c0,8.45-6.85,15.3-15.299,15.3H124.303
			c-8.45,0-15.3-6.85-15.3-15.3V122.18z"/>
		<path d="M478.645,208.341H124.303c-32.334,0-58.64-26.306-58.64-58.64V122.18c0-32.334,26.306-58.64,58.64-58.64h354.342
			c32.333,0,58.639,26.306,58.639,58.64v27.521C537.283,182.035,510.978,208.341,478.645,208.341z M124.303,64.54
			c-31.783,0-57.64,25.857-57.64,57.64v27.521c0,31.783,25.857,57.64,57.64,57.64h354.342c31.782,0,57.639-25.857,57.639-57.64
			V122.18c0-31.783-25.856-57.64-57.639-57.64H124.303z M478.645,165.5H124.303c-8.712,0-15.8-7.088-15.8-15.8V122.18
			c0-8.712,7.088-15.8,15.8-15.8h354.342c8.712,0,15.799,7.088,15.799,15.8v27.521C494.443,158.413,487.356,165.5,478.645,165.5z
			 M124.303,107.38c-8.161,0-14.8,6.639-14.8,14.8v27.521c0,8.161,6.639,14.8,14.8,14.8h354.342c8.16,0,14.799-6.639,14.799-14.8
			V122.18c0-8.161-6.639-14.8-14.799-14.8H124.303z"/>
	</g>
	<g>
		<path d="M159.652,242.727h-35.349c-32.059,0-58.14,26.082-58.14,58.14v175.655c0,32.059,26.082,58.141,58.14,58.141h35.349
			c32.058,0,58.14-26.082,58.14-58.141V300.867C217.792,268.808,191.71,242.727,159.652,242.727z M174.952,476.521
			c0,8.449-6.85,15.301-15.3,15.301h-35.349c-8.45,0-15.3-6.852-15.3-15.301V300.867c0-8.45,6.85-15.3,15.3-15.3h35.349
			c8.45,0,15.3,6.85,15.3,15.3V476.521z"/>
		<path d="M159.652,535.162h-35.349c-32.334,0-58.64-26.306-58.64-58.641V300.867c0-32.334,26.306-58.64,58.64-58.64h35.349
			c32.334,0,58.64,26.306,58.64,58.64v175.655C218.292,508.856,191.986,535.162,159.652,535.162z M124.303,243.227
			c-31.783,0-57.64,25.857-57.64,57.64v175.655c0,31.783,25.857,57.641,57.64,57.641h35.349c31.783,0,57.64-25.857,57.64-57.641
			V300.867c0-31.783-25.857-57.64-57.64-57.64H124.303z M159.652,492.322h-35.349c-8.712,0-15.8-7.088-15.8-15.801V300.867
			c0-8.712,7.088-15.8,15.8-15.8h35.349c8.712,0,15.8,7.088,15.8,15.8v175.655C175.452,485.234,168.364,492.322,159.652,492.322z
			 M124.303,286.066c-8.161,0-14.8,6.639-14.8,14.8v175.655c0,8.161,6.639,14.801,14.8,14.801h35.349c8.161,0,14.8-6.64,14.8-14.801
			V300.867c0-8.161-6.639-14.8-14.8-14.8H124.303z"/>
	</g>
	<g>
		<path d="M479.73,242.727H316.773c-32.058,0-58.14,26.082-58.14,58.14v176.741c0,32.059,26.082,58.141,58.14,58.141H479.73
			c32.059,0,58.141-26.082,58.141-58.141V300.867C537.871,268.808,511.789,242.727,479.73,242.727z M495.029,477.607
			c0,8.449-6.85,15.299-15.299,15.299H316.773c-8.449,0-15.3-6.85-15.3-15.299V300.867c0-8.45,6.851-15.3,15.3-15.3H479.73
			c8.449,0,15.299,6.85,15.299,15.3V477.607z"/>
		<path d="M479.73,536.248H316.773c-32.334,0-58.64-26.306-58.64-58.641V300.867c0-32.334,26.306-58.64,58.64-58.64H479.73
			c32.335,0,58.641,26.306,58.641,58.64v176.741C538.371,509.942,512.065,536.248,479.73,536.248z M316.773,243.227
			c-31.783,0-57.64,25.857-57.64,57.64v176.741c0,31.783,25.857,57.641,57.64,57.641H479.73c31.783,0,57.641-25.857,57.641-57.641
			V300.867c0-31.783-25.857-57.64-57.641-57.64H316.773z M479.73,493.406H316.773c-8.712,0-15.8-7.087-15.8-15.799V300.867
			c0-8.712,7.088-15.8,15.8-15.8H479.73c8.712,0,15.799,7.088,15.799,15.8v176.741C495.529,486.319,488.442,493.406,479.73,493.406z
			 M316.773,286.066c-8.16,0-14.8,6.639-14.8,14.8v176.741c0,8.16,6.64,14.799,14.8,14.799H479.73
			c8.16,0,14.799-6.639,14.799-14.799V300.867c0-8.161-6.639-14.8-14.799-14.8H316.773z"/>
	</g>
</g>
</svg>